0,0,Header,0,1,120
1,0,Start_track,NA,NA,NA
1,0,Note_on_c,2,53,92
1,0,Note_on_c,2,60,92
1,0,Note_on_c,3,69,95
1,0,Note_on_c,3,72,95
1,0,Text_t,http://mazurka.org.uk/ana/midi/pid9172-12/pid9172-12-avgtapsd0.mid :: MIDI file generated by Craig Stuart Sapp on Tue Jan 11 05:28:26 PST 2011 from http://mazurka.org.uk/info/revcond/pid9172-12/pid9172-12.btime [c36a4fad7b827a5ef877b2ad46732059],NA,NA
1,0,Text_t,!!!performance-id:\011pid9172-12,NA,NA
1,0,Text_t,"!!!title:\011\011Mazurka in F major, Op. 68, No. 3",NA,NA
1,0,Text_t,!!!trials:\011\0111,NA,NA
1,0,Text_t,!!!date: \011\0112007/12/13/,NA,NA
1,0,Text_t,!!!reverse-conductor:\011Craig Stuart Sapp,NA,NA
1,0,Text_t,!!!performer: \011\011Richter,NA,NA
1,0,Text_t,!!!performance-date:\0111976,NA,NA
1,0,Text_t,!!!label:\011\011Doremi DHR-7724,NA,NA
1,0,Text_t,!!!label-title:\011\011Sviatoslav Richter Archives V2: Chopin Recitals 1954-1977,NA,NA
1,0,Text_t,!!!offset:\011\0110,NA,NA
1,0,Text_t,"!!!COM: Chopin, Frederic",NA,NA
1,0,Text_t,!!!CDT: 1810///-1849///,NA,NA
1,0,Title_t,"!!!OTL: Mazurka in F Major, Op. 68, No. 3",NA,NA
1,0,Text_t,!!!OPS: Op. 68,NA,NA
1,0,Text_t,!!!ONM: No. 3,NA,NA
1,0,Text_t,!!!OMD: Allegro ma non troppo,NA,NA
1,0,Text_t,!!!ODT: ~1830///,NA,NA
1,0,Text_t,!!!PDT: 1855///,NA,NA
1,0,Text_t,!!!PPP: Berlin,NA,NA
1,0,Text_t,!!!AIN: piano,NA,NA
1,0,Text_t,151.899,NA,NA
1,0,Text_t,148,NA,NA
1,0,Text_t,f,NA,NA
1,0,Tempo,394999,NA,NA
1,90,Note_off_c,2,53,92
1,90,Note_off_c,2,60,92
1,90,Note_off_c,3,69,95
1,90,Note_off_c,3,72,95
1,90,Note_on_c,2,53,81
1,90,Note_on_c,2,60,81
1,90,Note_on_c,3,69,87
1,90,Note_on_c,3,72,87
1,120,Note_off_c,2,53,81
1,120,Note_off_c,2,60,81
1,120,Note_off_c,3,69,87
1,120,Note_off_c,3,72,87
1,120,Note_on_c,2,53,81
1,120,Note_on_c,2,60,81
1,120,Note_on_c,3,69,85
1,120,Note_on_c,3,72,85
1,120,Text_t,179.104,NA,NA
1,120,Text_t,543,NA,NA
1,120,Tempo,335001,NA,NA
1,240,Note_off_c,2,53,81
1,240,Note_off_c,2,60,81
1,240,Note_off_c,3,69,85
1,240,Note_off_c,3,72,85
1,240,Note_on_c,2,53,81
1,240,Note_on_c,2,60,81
1,240,Note_on_c,3,69,86
1,240,Note_on_c,3,77,86
1,240,Text_t,176.471,NA,NA
1,240,Text_t,878,NA,NA
1,240,Tempo,339999,NA,NA
1,360,Note_off_c,2,53,81
1,360,Note_off_c,2,60,81
1,360,Note_off_c,3,69,86
1,360,Note_off_c,3,77,86
1,360,Note_on_c,2,55,92
1,360,Note_on_c,2,60,92
1,360,Note_on_c,2,48,92
1,360,Note_on_c,3,67,91
1,360,Note_on_c,3,76,91
1,360,Text_t,153.846,NA,NA
1,360,Text_t,1218,NA,NA
1,360,Tempo,390000,NA,NA
1,450,Note_off_c,2,55,92
1,450,Note_off_c,2,60,92
1,450,Note_off_c,3,67,91
1,450,Note_off_c,3,76,91
1,450,Note_on_c,2,59,90
1,450,Note_on_c,3,65,83
1,450,Note_on_c,3,74,83
1,480,Note_off_c,2,59,90
1,480,Note_off_c,3,65,83
1,480,Note_off_c,3,74,83
1,480,Note_on_c,2,60,83
1,480,Note_on_c,3,64,88
1,480,Note_on_c,3,72,88
1,480,Text_t,176.471,NA,NA
1,480,Text_t,1608,NA,NA
1,480,Tempo,339999,NA,NA
1,600,Text_t,1948,NA,NA
1,720,Note_off_c,2,48,92
1,720,Note_off_c,2,60,83
1,720,Note_off_c,3,64,88
1,720,Note_off_c,3,72,88
1,720,Note_on_c,2,50,91
1,720,Note_on_c,2,57,91
1,720,Note_on_c,3,65,92
1,720,Note_on_c,3,69,92
1,720,Text_t,157.895,NA,NA
1,720,Text_t,2288,NA,NA
1,720,Tempo,379999,NA,NA
1,810,Note_off_c,2,50,91
1,810,Note_off_c,2,57,91
1,810,Note_off_c,3,65,92
1,810,Note_off_c,3,69,92
1,810,Note_on_c,2,50,85
1,810,Note_on_c,2,57,85
1,810,Note_on_c,3,65,88
1,810,Note_on_c,3,69,88
1,840,Note_off_c,2,50,85
1,840,Note_off_c,2,57,85
1,840,Note_off_c,3,65,88
1,840,Note_off_c,3,69,88
1,840,Note_on_c,2,50,86
1,840,Note_on_c,2,57,86
1,840,Note_on_c,3,65,85
1,840,Note_on_c,3,69,85
1,840,Text_t,181.818,NA,NA
1,840,Text_t,2668,NA,NA
1,840,Tempo,330000,NA,NA
1,960,Note_off_c,2,50,86
1,960,Note_off_c,2,57,86
1,960,Note_off_c,3,65,85
1,960,Note_off_c,3,69,85
1,960,Note_on_c,2,50,81
1,960,Note_on_c,2,57,81
1,960,Note_on_c,3,65,80
1,960,Note_on_c,3,74,80
1,960,Text_t,2998,NA,NA
1,1080,Note_off_c,2,50,81
1,1080,Note_off_c,2,57,81
1,1080,Note_off_c,3,65,80
1,1080,Note_off_c,3,74,80
1,1080,Note_on_c,2,52,95
1,1080,Note_on_c,2,45,95
1,1080,Note_on_c,3,64,89
1,1080,Note_on_c,3,72,89
1,1080,Text_t,157.895,NA,NA
1,1080,Text_t,3328,NA,NA
1,1080,Tempo,379999,NA,NA
1,1170,Note_off_c,2,52,95
1,1170,Note_off_c,3,64,89
1,1170,Note_off_c,3,72,89
1,1170,Note_on_c,2,56,83
1,1170,Note_on_c,3,62,86
1,1170,Note_on_c,3,70,86
1,1200,Note_off_c,2,56,83
1,1200,Note_off_c,3,62,86
1,1200,Note_off_c,3,70,86
1,1200,Note_on_c,2,57,86
1,1200,Note_on_c,3,60,83
1,1200,Note_on_c,3,69,83
1,1200,Text_t,179.104,NA,NA
1,1200,Text_t,3708,NA,NA
1,1200,Tempo,335001,NA,NA
1,1320,Text_t,4043,NA,NA
1,1440,Note_off_c,2,45,95
1,1440,Note_off_c,2,57,86
1,1440,Note_off_c,3,60,83
1,1440,Note_off_c,3,69,83
1,1440,Note_on_c,2,46,87
1,1440,Note_on_c,2,53,87
1,1440,Note_on_c,3,62,92
1,1440,Note_on_c,3,65,92
1,1440,Text_t,166.667,NA,NA
1,1440,Text_t,4378,NA,NA
1,1440,Tempo,359999,NA,NA
1,1530,Note_off_c,2,46,87
1,1530,Note_off_c,2,53,87
1,1530,Note_off_c,3,62,92
1,1530,Note_off_c,3,65,92
1,1530,Note_on_c,2,46,81
1,1530,Note_on_c,2,53,81
1,1530,Note_on_c,3,62,88
1,1530,Note_on_c,3,65,88
1,1560,Note_off_c,2,46,81
1,1560,Note_off_c,2,53,81
1,1560,Note_off_c,3,62,88
1,1560,Note_off_c,3,65,88
1,1560,Note_on_c,2,46,85
1,1560,Note_on_c,2,53,85
1,1560,Note_on_c,3,62,82
1,1560,Note_on_c,3,65,82
1,1560,Text_t,181.818,NA,NA
1,1560,Text_t,4738,NA,NA
1,1560,Tempo,330000,NA,NA
1,1680,Note_off_c,2,46,85
1,1680,Note_off_c,2,53,85
1,1680,Note_off_c,3,62,82
1,1680,Note_off_c,3,65,82
1,1680,Note_on_c,2,46,83
1,1680,Note_on_c,2,53,83
1,1680,Note_on_c,3,62,88
1,1680,Note_on_c,3,70,88
1,1680,Text_t,171.429,NA,NA
1,1680,Text_t,5068,NA,NA
1,1680,Tempo,349999,NA,NA
1,1800,Note_off_c,2,46,83
1,1800,Note_off_c,2,53,83
1,1800,Note_off_c,3,62,88
1,1800,Note_off_c,3,70,88
1,1800,Note_on_c,2,41,94
1,1800,Note_on_c,2,53,94
1,1800,Note_on_c,3,60,92
1,1800,Note_on_c,3,69,92
1,1800,Text_t,166.667,NA,NA
1,1800,Text_t,5418,NA,NA
1,1800,Tempo,359999,NA,NA
1,1890,Note_off_c,2,41,94
1,1890,Note_off_c,2,53,94
1,1890,Note_off_c,3,60,92
1,1890,Note_off_c,3,69,92
1,1890,Note_on_c,2,41,80
1,1890,Note_on_c,2,53,80
1,1890,Note_on_c,3,58,89
1,1890,Note_on_c,3,67,89
1,1920,Note_off_c,2,41,80
1,1920,Note_off_c,2,53,80
1,1920,Note_off_c,3,58,89
1,1920,Note_off_c,3,67,89
1,1920,Note_on_c,2,41,83
1,1920,Note_on_c,2,53,83
1,1920,Note_on_c,3,57,90
1,1920,Note_on_c,3,65,90
1,1920,Text_t,181.818,NA,NA
1,1920,Text_t,5778,NA,NA
1,1920,Tempo,330000,NA,NA
1,2040,Note_off_c,2,41,83
1,2040,Note_off_c,2,53,83
1,2040,Note_off_c,3,57,90
1,2040,Note_off_c,3,65,90
1,2040,Note_on_c,2,46,84
1,2040,Note_on_c,2,53,84
1,2040,Note_on_c,3,62,83
1,2040,Note_on_c,3,70,83
1,2040,Text_t,6108,NA,NA
1,2160,Note_off_c,2,46,84
1,2160,Note_off_c,2,53,84
1,2160,Note_off_c,3,62,83
1,2160,Note_off_c,3,70,83
1,2160,Note_on_c,2,53,91
1,2160,Note_on_c,2,41,91
1,2160,Note_on_c,3,60,93
1,2160,Note_on_c,3,69,93
1,2160,Text_t,182.371,NA,NA
1,2160,Text_t,6438,NA,NA
1,2160,Tempo,329000,NA,NA
1,2250,Note_off_c,2,53,91
1,2250,Note_off_c,3,60,93
1,2250,Note_off_c,3,69,93
1,2250,Note_on_c,2,53,82
1,2250,Note_on_c,3,58,87
1,2250,Note_on_c,3,67,87
1,2280,Note_off_c,2,53,82
1,2280,Note_off_c,3,58,87
1,2280,Note_off_c,3,67,87
1,2280,Note_on_c,2,53,84
1,2280,Note_on_c,3,57,80
1,2280,Note_on_c,3,65,80
1,2280,Text_t,169.972,NA,NA
1,2280,Text_t,6767,NA,NA
1,2280,Tempo,352999,NA,NA
1,2400,Note_off_c,2,41,91
1,2400,Note_off_c,2,53,84
1,2400,Note_off_c,3,57,80
1,2400,Note_off_c,3,65,80
1,2400,Note_on_c,2,50,87
1,2400,Note_on_c,2,43,87
1,2400,Note_on_c,3,59,83
1,2400,Note_on_c,3,67,83
1,2400,Text_t,136.986,NA,NA
1,2400,Text_t,7120,NA,NA
1,2400,Tempo,438001,NA,NA
1,2460,Note_off_c,2,50,87
1,2460,Note_on_c,2,55,83
1,2520,Note_off_c,2,43,87
1,2520,Note_off_c,2,55,83
1,2520,Note_off_c,3,59,83
1,2520,Note_off_c,3,67,83
1,2520,Note_on_c,2,55,89
1,2520,Note_on_c,2,48,89
1,2520,Note_on_c,3,60,90
1,2520,Note_on_c,3,64,90
1,2520,Text_t,144.578,NA,NA
1,2520,Text_t,7558,NA,NA
1,2520,Tempo,415001,NA,NA
1,2610,Note_off_c,2,55,89
1,2610,Note_off_c,3,60,90
1,2610,Note_off_c,3,64,90
1,2610,Note_on_c,2,53,88
1,2610,Note_on_c,3,62,89
1,2640,Note_off_c,2,53,88
1,2640,Note_off_c,3,62,89
1,2640,Note_on_c,2,52,86
1,2640,Note_on_c,3,60,87
1,2640,Text_t,136.054,NA,NA
1,2640,Text_t,7973,NA,NA
1,2640,Tempo,441001,NA,NA
1,2760,Text_t,179.641,NA,NA
1,2760,Text_t,8414,NA,NA
1,2760,Tempo,333999,NA,NA
1,2880,Note_off_c,2,48,89
1,2880,Note_off_c,2,52,86
1,2880,Note_off_c,3,60,87
1,2880,Note_on_c,2,53,49
1,2880,Note_on_c,2,60,49
1,2880,Note_on_c,3,69,48
1,2880,Note_on_c,3,72,48
1,2880,Text_t,162.162,NA,NA
1,2880,Text_t,8748,NA,NA
1,2880,Text_t,p,NA,NA
1,2880,Tempo,370000,NA,NA
1,2970,Note_off_c,2,53,49
1,2970,Note_off_c,2,60,49
1,2970,Note_off_c,3,69,48
1,2970,Note_off_c,3,72,48
1,2970,Note_on_c,2,53,41
1,2970,Note_on_c,2,60,41
1,2970,Note_on_c,3,69,46
1,2970,Note_on_c,3,72,46
1,3000,Note_off_c,2,53,41
1,3000,Note_off_c,2,60,41
1,3000,Note_off_c,3,69,46
1,3000,Note_off_c,3,72,46
1,3000,Note_on_c,2,53,43
1,3000,Note_on_c,2,60,43
1,3000,Note_on_c,3,69,45
1,3000,Note_on_c,3,72,45
1,3000,Text_t,171.429,NA,NA
1,3000,Text_t,9118,NA,NA
1,3000,Tempo,349999,NA,NA
1,3120,Note_off_c,2,53,43
1,3120,Note_off_c,2,60,43
1,3120,Note_off_c,3,69,45
1,3120,Note_off_c,3,72,45
1,3120,Note_on_c,2,53,46
1,3120,Note_on_c,2,60,46
1,3120,Note_on_c,3,69,50
1,3120,Note_on_c,3,77,50
1,3120,Text_t,166.667,NA,NA
1,3120,Text_t,9468,NA,NA
1,3120,Tempo,359999,NA,NA
1,3240,Note_off_c,2,53,46
1,3240,Note_off_c,2,60,46
1,3240,Note_off_c,3,69,50
1,3240,Note_off_c,3,77,50
1,3240,Note_on_c,2,55,52
1,3240,Note_on_c,2,60,52
1,3240,Note_on_c,2,48,52
1,3240,Note_on_c,3,67,48
1,3240,Note_on_c,3,76,48
1,3240,Text_t,150,NA,NA
1,3240,Text_t,9828,NA,NA
1,3240,Tempo,400000,NA,NA
1,3330,Note_off_c,2,55,52
1,3330,Note_off_c,2,60,52
1,3330,Note_off_c,3,67,48
1,3330,Note_off_c,3,76,48
1,3330,Note_on_c,2,59,49
1,3330,Note_on_c,3,65,45
1,3330,Note_on_c,3,74,45
1,3360,Note_off_c,2,59,49
1,3360,Note_off_c,3,65,45
1,3360,Note_off_c,3,74,45
1,3360,Note_on_c,2,60,41
1,3360,Note_on_c,3,64,41
1,3360,Note_on_c,3,72,41
1,3360,Text_t,179.104,NA,NA
1,3360,Text_t,10228,NA,NA
1,3360,Tempo,335001,NA,NA
1,3480,Text_t,10563,NA,NA
1,3600,Note_off_c,2,48,52
1,3600,Note_off_c,2,60,41
1,3600,Note_off_c,3,64,41
1,3600,Note_off_c,3,72,41
1,3600,Note_on_c,2,50,48
1,3600,Note_on_c,2,57,48
1,3600,Note_on_c,3,65,56
1,3600,Note_on_c,3,69,56
1,3600,Text_t,166.667,NA,NA
1,3600,Text_t,10898,NA,NA
1,3600,Tempo,359999,NA,NA
1,3690,Note_off_c,2,50,48
1,3690,Note_off_c,2,57,48
1,3690,Note_off_c,3,65,56
1,3690,Note_off_c,3,69,56
1,3690,Note_on_c,2,50,45
1,3690,Note_on_c,2,57,45
1,3690,Note_on_c,3,65,43
1,3690,Note_on_c,3,69,43
1,3720,Note_off_c,2,50,45
1,3720,Note_off_c,2,57,45
1,3720,Note_off_c,3,65,43
1,3720,Note_off_c,3,69,43
1,3720,Note_on_c,2,50,48
1,3720,Note_on_c,2,57,48
1,3720,Note_on_c,3,65,51
1,3720,Note_on_c,3,69,51
1,3720,Text_t,157.895,NA,NA
1,3720,Text_t,11258,NA,NA
1,3720,Tempo,379999,NA,NA
1,3840,Note_off_c,2,50,48
1,3840,Note_off_c,2,57,48
1,3840,Note_off_c,3,65,51
1,3840,Note_off_c,3,69,51
1,3840,Note_on_c,2,50,42
1,3840,Note_on_c,2,57,42
1,3840,Note_on_c,3,65,42
1,3840,Note_on_c,3,74,42
1,3840,Text_t,166.667,NA,NA
1,3840,Text_t,11638,NA,NA
1,3840,Tempo,359999,NA,NA
1,3960,Note_off_c,2,50,42
1,3960,Note_off_c,2,57,42
1,3960,Note_off_c,3,65,42
1,3960,Note_off_c,3,74,42
1,3960,Note_on_c,2,52,49
1,3960,Note_on_c,2,45,49
1,3960,Note_on_c,3,64,56
1,3960,Note_on_c,3,72,56
1,3960,Text_t,153.846,NA,NA
1,3960,Text_t,11998,NA,NA
1,3960,Tempo,390000,NA,NA
1,4050,Note_off_c,2,52,49
1,4050,Note_off_c,3,64,56
1,4050,Note_off_c,3,72,56
1,4050,Note_on_c,2,56,45
1,4050,Note_on_c,3,62,46
1,4050,Note_on_c,3,70,46
1,4080,Note_off_c,2,56,45
1,4080,Note_off_c,3,62,46
1,4080,Note_off_c,3,70,46
1,4080,Note_on_c,2,57,49
1,4080,Note_on_c,3,60,48
1,4080,Note_on_c,3,69,48
1,4080,Text_t,166.667,NA,NA
1,4080,Text_t,12388,NA,NA
1,4080,Tempo,359999,NA,NA
1,4200,Note_off_c,2,45,49
1,4200,Text_t,171.429,NA,NA
1,4200,Text_t,12748,NA,NA
1,4200,Tempo,349999,NA,NA
1,4320,Note_off_c,2,57,49
1,4320,Note_off_c,3,60,48
1,4320,Note_off_c,3,69,48
1,4320,Note_on_c,2,46,54
1,4320,Note_on_c,2,53,54
1,4320,Note_on_c,3,62,49
1,4320,Note_on_c,3,65,49
1,4320,Text_t,157.895,NA,NA
1,4320,Text_t,13098,NA,NA
1,4320,Tempo,379999,NA,NA
1,4410,Note_off_c,2,46,54
1,4410,Note_off_c,2,53,54
1,4410,Note_off_c,3,62,49
1,4410,Note_off_c,3,65,49
1,4410,Note_on_c,2,46,42
1,4410,Note_on_c,2,53,42
1,4410,Note_on_c,3,62,47
1,4410,Note_on_c,3,65,47
1,4440,Note_off_c,2,46,42
1,4440,Note_off_c,2,53,42
1,4440,Note_off_c,3,62,47
1,4440,Note_off_c,3,65,47
1,4440,Note_on_c,2,46,47
1,4440,Note_on_c,2,53,47
1,4440,Note_on_c,3,62,50
1,4440,Note_on_c,3,65,50
1,4440,Text_t,176.471,NA,NA
1,4440,Text_t,13478,NA,NA
1,4440,Tempo,339999,NA,NA
1,4560,Note_off_c,2,46,47
1,4560,Note_off_c,2,53,47
1,4560,Note_off_c,3,62,50
1,4560,Note_off_c,3,65,50
1,4560,Note_on_c,2,46,42
1,4560,Note_on_c,2,53,42
1,4560,Note_on_c,3,62,47
1,4560,Note_on_c,3,70,47
1,4560,Text_t,13818,NA,NA
1,4680,Note_off_c,2,46,42
1,4680,Note_off_c,2,53,42
1,4680,Note_off_c,3,62,47
1,4680,Note_off_c,3,70,47
1,4680,Note_on_c,2,41,54
1,4680,Note_on_c,2,53,54
1,4680,Note_on_c,3,60,50
1,4680,Note_on_c,3,69,50
1,4680,Text_t,150,NA,NA
1,4680,Text_t,14158,NA,NA
1,4680,Tempo,400000,NA,NA
1,4770,Note_off_c,2,41,54
1,4770,Note_off_c,2,53,54
1,4770,Note_off_c,3,60,50
1,4770,Note_off_c,3,69,50
1,4770,Note_on_c,2,41,45
1,4770,Note_on_c,2,53,45
1,4770,Note_on_c,3,58,46
1,4770,Note_on_c,3,67,46
1,4800,Note_off_c,2,41,45
1,4800,Note_off_c,2,53,45
1,4800,Note_off_c,3,58,46
1,4800,Note_off_c,3,67,46
1,4800,Note_on_c,2,41,49
1,4800,Note_on_c,2,53,49
1,4800,Note_on_c,3,57,49
1,4800,Note_on_c,3,65,49
1,4800,Text_t,176.471,NA,NA
1,4800,Text_t,14558,NA,NA
1,4800,Tempo,339999,NA,NA
1,4920,Note_off_c,2,41,49
1,4920,Note_off_c,2,53,49
1,4920,Note_off_c,3,57,49
1,4920,Note_off_c,3,65,49
1,4920,Note_on_c,2,46,43
1,4920,Note_on_c,2,53,43
1,4920,Note_on_c,3,62,51
1,4920,Note_on_c,3,70,51
1,4920,Text_t,171.429,NA,NA
1,4920,Text_t,14898,NA,NA
1,4920,Tempo,349999,NA,NA
1,5040,Note_off_c,2,46,43
1,5040,Note_off_c,2,53,43
1,5040,Note_off_c,3,62,51
1,5040,Note_off_c,3,70,51
1,5040,Note_on_c,2,53,55
1,5040,Note_on_c,2,41,55
1,5040,Note_on_c,3,60,53
1,5040,Note_on_c,3,69,53
1,5040,Text_t,157.895,NA,NA
1,5040,Text_t,15248,NA,NA
1,5040,Tempo,379999,NA,NA
1,5130,Note_off_c,2,53,55
1,5130,Note_off_c,3,60,53
1,5130,Note_off_c,3,69,53
1,5130,Note_on_c,2,53,51
1,5130,Note_on_c,3,58,49
1,5130,Note_on_c,3,67,49
1,5160,Note_off_c,2,53,51
1,5160,Note_off_c,3,58,49
1,5160,Note_off_c,3,67,49
1,5160,Note_on_c,2,53,45
1,5160,Note_on_c,3,57,45
1,5160,Note_on_c,3,65,45
1,5160,Text_t,171.429,NA,NA
1,5160,Text_t,15628,NA,NA
1,5160,Tempo,349999,NA,NA
1,5280,Note_off_c,2,41,55
1,5280,Note_off_c,2,53,45
1,5280,Note_off_c,3,57,45
1,5280,Note_off_c,3,65,45
1,5280,Note_on_c,2,55,57
1,5280,Note_on_c,2,46,44
1,5280,Note_on_c,3,62,66
1,5280,Note_on_c,3,67,86
1,5280,Text_t,127.66,NA,NA
1,5280,Text_t,15978,NA,NA
1,5280,Tempo,469998,NA,NA
1,5400,Note_off_c,2,55,57
1,5400,Note_off_c,2,46,44
1,5400,Note_off_c,3,62,66
1,5400,Note_off_c,3,67,86
1,5400,Note_on_c,2,48,52
1,5400,Note_on_c,3,55,49
1,5400,Note_on_c,3,62,49
1,5400,Text_t,100,NA,NA
1,5400,Text_t,16448,NA,NA
1,5400,Tempo,600000,NA,NA
1,5460,Note_off_c,3,55,49
1,5460,Note_off_c,3,62,49
1,5460,Note_on_c,3,60,43
1,5460,Note_on_c,3,64,43
1,5520,Note_off_c,2,48,52
1,5520,Note_off_c,3,60,43
1,5520,Note_off_c,3,64,43
1,5520,Note_on_c,2,41,49
1,5520,Note_on_c,2,53,49
1,5520,Note_on_c,3,57,45
1,5520,Note_on_c,3,65,45
1,5520,Text_t,110.092,NA,NA
1,5520,Text_t,17048,NA,NA
1,5520,Tempo,544999,NA,NA
1,5640,Text_t,17593,NA,NA
1,5760,Note_off_c,2,41,49
1,5760,Note_off_c,2,53,49
1,5760,Note_off_c,3,57,45
1,5760,Note_off_c,3,65,45
1,5760,Note_on_c,2,57,104
1,5760,Note_on_c,2,45,104
1,5760,Note_on_c,3,69,101
1,5760,Note_on_c,3,81,101
1,5760,Text_t,139.535,NA,NA
1,5760,Text_t,18138,NA,NA
1,5760,Text_t,ff,NA,NA
1,5760,Tempo,430000,NA,NA
1,5850,Note_off_c,2,57,104
1,5850,Note_off_c,3,69,101
1,5850,Note_off_c,3,81,101
1,5850,Note_on_c,2,57,93
1,5850,Note_on_c,3,69,100
1,5850,Note_on_c,3,81,100
1,5880,Note_off_c,2,45,104
1,5880,Note_off_c,2,57,93
1,5880,Note_off_c,3,69,100
1,5880,Note_off_c,3,81,100
1,5880,Note_on_c,2,57,103
1,5880,Note_on_c,2,57,103
1,5880,Note_on_c,3,69,98
1,5880,Note_on_c,3,81,98
1,5880,Text_t,166.667,NA,NA
1,5880,Text_t,18568,NA,NA
1,5880,Tempo,359999,NA,NA
1,6000,Note_off_c,2,57,103
1,6000,Note_off_c,3,69,98
1,6000,Note_off_c,3,81,98
1,6000,Note_on_c,2,62,98
1,6000,Note_on_c,2,65,98
1,6000,Note_on_c,3,74,94
1,6000,Note_on_c,3,77,94
1,6000,Text_t,155.44,NA,NA
1,6000,Text_t,18928,NA,NA
1,6000,Tempo,386001,NA,NA
1,6120,Note_off_c,2,57,103
1,6120,Note_off_c,2,62,98
1,6120,Note_off_c,2,65,98
1,6120,Note_off_c,3,74,94
1,6120,Note_off_c,3,77,94
1,6120,Note_on_c,2,61,100
1,6120,Note_on_c,2,64,100
1,6120,Note_on_c,3,73,106
1,6120,Note_on_c,3,76,106
1,6120,Text_t,144.928,NA,NA
1,6120,Text_t,19314,NA,NA
1,6120,Tempo,413999,NA,NA
1,6210,Note_off_c,2,61,100
1,6210,Note_off_c,2,64,100
1,6210,Note_off_c,3,73,106
1,6210,Note_off_c,3,76,106
1,6210,Note_on_c,2,59,93
1,6210,Note_on_c,2,62,93
1,6210,Note_on_c,3,71,101
1,6210,Note_on_c,3,74,101
1,6240,Note_off_c,2,59,93
1,6240,Note_off_c,2,62,93
1,6240,Note_off_c,3,71,101
1,6240,Note_off_c,3,74,101
1,6240,Note_on_c,2,61,93
1,6240,Note_on_c,2,64,93
1,6240,Note_on_c,3,73,102
1,6240,Note_on_c,3,76,102
1,6240,Text_t,187.5,NA,NA
1,6240,Text_t,19728,NA,NA
1,6240,Tempo,320000,NA,NA
1,6360,Note_off_c,2,61,93
1,6360,Note_off_c,2,64,93
1,6360,Note_off_c,3,73,102
1,6360,Note_off_c,3,76,102
1,6360,Note_on_c,2,52,95
1,6360,Note_on_c,2,61,95
1,6360,Note_on_c,3,69,94
1,6360,Note_on_c,3,73,94
1,6360,Text_t,166.667,NA,NA
1,6360,Text_t,20048,NA,NA
1,6360,Tempo,359999,NA,NA
1,6480,Note_off_c,2,52,95
1,6480,Note_off_c,2,61,95
1,6480,Note_off_c,3,69,94
1,6480,Note_off_c,3,73,94
1,6480,Note_on_c,2,57,103
1,6480,Note_on_c,2,45,103
1,6480,Note_on_c,3,69,102
1,6480,Note_on_c,3,81,102
1,6480,Text_t,150,NA,NA
1,6480,Text_t,20408,NA,NA
1,6480,Tempo,400000,NA,NA
1,6570,Note_off_c,2,57,103
1,6570,Note_off_c,3,69,102
1,6570,Note_off_c,3,81,102
1,6570,Note_on_c,2,57,100
1,6570,Note_on_c,3,69,102
1,6570,Note_on_c,3,81,102
1,6600,Note_off_c,2,45,103
1,6600,Note_off_c,2,57,100
1,6600,Note_off_c,3,69,102
1,6600,Note_off_c,3,81,102
1,6600,Note_on_c,2,57,94
1,6600,Note_on_c,2,57,94
1,6600,Note_on_c,3,69,95
1,6600,Note_on_c,3,81,95
1,6600,Text_t,166.667,NA,NA
1,6600,Text_t,20808,NA,NA
1,6600,Tempo,359999,NA,NA
1,6720,Note_off_c,2,57,94
1,6720,Note_off_c,3,69,95
1,6720,Note_off_c,3,81,95
1,6720,Note_on_c,2,62,102
1,6720,Note_on_c,2,65,102
1,6720,Note_on_c,3,74,94
1,6720,Note_on_c,3,77,94
1,6720,Text_t,162.162,NA,NA
1,6720,Text_t,21168,NA,NA
1,6720,Tempo,370000,NA,NA
1,6840,Note_off_c,2,57,94
1,6840,Note_off_c,2,62,102
1,6840,Note_off_c,2,65,102
1,6840,Note_off_c,3,74,94
1,6840,Note_off_c,3,77,94
1,6840,Note_on_c,2,61,101
1,6840,Note_on_c,2,64,101
1,6840,Note_on_c,3,73,99
1,6840,Note_on_c,3,76,99
1,6840,Text_t,133.333,NA,NA
1,6840,Text_t,21538,NA,NA
1,6840,Tempo,450001,NA,NA
1,6930,Note_off_c,2,61,101
1,6930,Note_off_c,2,64,101
1,6930,Note_off_c,3,73,99
1,6930,Note_off_c,3,76,99
1,6930,Note_on_c,2,59,102
1,6930,Note_on_c,2,62,102
1,6930,Note_on_c,3,71,96
1,6930,Note_on_c,3,74,96
1,6960,Note_off_c,2,59,102
1,6960,Note_off_c,2,62,102
1,6960,Note_off_c,3,71,96
1,6960,Note_off_c,3,74,96
1,6960,Note_on_c,2,52,100
1,6960,Note_on_c,2,59,100
1,6960,Note_on_c,3,64,94
1,6960,Note_on_c,3,71,94
1,6960,Text_t,110.092,NA,NA
1,6960,Text_t,21988,NA,NA
1,6960,Tempo,544999,NA,NA
1,7080,Text_t,22533,NA,NA
1,7200,Note_off_c,2,52,100
1,7200,Note_off_c,2,59,100
1,7200,Note_off_c,3,64,94
1,7200,Note_off_c,3,71,94
1,7200,Note_on_c,2,57,56
1,7200,Note_on_c,2,45,56
1,7200,Note_on_c,3,69,50
1,7200,Note_on_c,3,81,50
1,7200,Text_t,142.857,NA,NA
1,7200,Text_t,23078,NA,NA
1,7200,Text_t,p,NA,NA
1,7200,Tempo,420000,NA,NA
1,7290,Note_off_c,2,57,56
1,7290,Note_off_c,3,69,50
1,7290,Note_off_c,3,81,50
1,7290,Note_on_c,2,57,51
1,7290,Note_on_c,3,69,47
1,7290,Note_on_c,3,81,47
1,7320,Note_off_c,2,45,56
1,7320,Note_off_c,2,57,51
1,7320,Note_off_c,3,69,47
1,7320,Note_off_c,3,81,47
1,7320,Note_on_c,2,57,46
1,7320,Note_on_c,2,57,46
1,7320,Note_on_c,3,69,51
1,7320,Note_on_c,3,81,51
1,7320,Text_t,171.429,NA,NA
1,7320,Text_t,23498,NA,NA
1,7320,Tempo,349999,NA,NA
1,7440,Note_off_c,2,57,46
1,7440,Note_off_c,3,69,51
1,7440,Note_off_c,3,81,51
1,7440,Note_on_c,2,62,51
1,7440,Note_on_c,2,65,51
1,7440,Note_on_c,3,74,47
1,7440,Note_on_c,3,77,47
1,7440,Text_t,166.667,NA,NA
1,7440,Text_t,23848,NA,NA
1,7440,Tempo,359999,NA,NA
1,7560,Note_off_c,2,57,46
1,7560,Note_off_c,2,62,51
1,7560,Note_off_c,2,65,51
1,7560,Note_off_c,3,74,47
1,7560,Note_off_c,3,77,47
1,7560,Note_on_c,2,61,53
1,7560,Note_on_c,2,64,53
1,7560,Note_on_c,3,73,49
1,7560,Note_on_c,3,76,49
1,7560,Text_t,138.249,NA,NA
1,7560,Text_t,24208,NA,NA
1,7560,Tempo,434000,NA,NA
1,7650,Note_off_c,2,61,53
1,7650,Note_off_c,2,64,53
1,7650,Note_off_c,3,73,49
1,7650,Note_off_c,3,76,49
1,7650,Note_on_c,2,59,45
1,7650,Note_on_c,2,62,45
1,7650,Note_on_c,3,71,41
1,7650,Note_on_c,3,74,41
1,7680,Note_off_c,2,59,45
1,7680,Note_off_c,2,62,45
1,7680,Note_off_c,3,71,41
1,7680,Note_off_c,3,74,41
1,7680,Note_on_c,2,61,51
1,7680,Note_on_c,2,64,51
1,7680,Note_on_c,3,73,49
1,7680,Note_on_c,3,76,49
1,7680,Text_t,159.574,NA,NA
1,7680,Text_t,24642,NA,NA
1,7680,Tempo,376001,NA,NA
1,7800,Note_off_c,2,61,51
1,7800,Note_off_c,2,64,51
1,7800,Note_off_c,3,73,49
1,7800,Note_off_c,3,76,49
1,7800,Note_on_c,2,52,46
1,7800,Note_on_c,2,61,46
1,7800,Note_on_c,3,69,44
1,7800,Note_on_c,3,73,44
1,7800,Text_t,153.846,NA,NA
1,7800,Text_t,25018,NA,NA
1,7800,Tempo,390000,NA,NA
1,7920,Note_off_c,2,52,46
1,7920,Note_off_c,2,61,46
1,7920,Note_off_c,3,69,44
1,7920,Note_off_c,3,73,44
1,7920,Note_on_c,2,57,57
1,7920,Note_on_c,2,45,57
1,7920,Note_on_c,3,69,48
1,7920,Note_on_c,3,81,48
1,7920,Text_t,136.364,NA,NA
1,7920,Text_t,25408,NA,NA
1,7920,Tempo,439999,NA,NA
1,8010,Note_off_c,2,57,57
1,8010,Note_off_c,3,69,48
1,8010,Note_off_c,3,81,48
1,8010,Note_on_c,2,57,48
1,8010,Note_on_c,3,69,41
1,8010,Note_on_c,3,81,41
1,8040,Note_off_c,2,45,57
1,8040,Note_off_c,2,57,48
1,8040,Note_off_c,3,69,41
1,8040,Note_off_c,3,81,41
1,8040,Note_on_c,2,57,50
1,8040,Note_on_c,2,57,50
1,8040,Note_on_c,3,69,48
1,8040,Note_on_c,3,81,48
1,8040,Text_t,25848,NA,NA
1,8160,Note_off_c,2,57,50
1,8160,Note_off_c,3,69,48
1,8160,Note_off_c,3,81,48
1,8160,Note_on_c,2,62,42
1,8160,Note_on_c,2,65,42
1,8160,Note_on_c,3,74,41
1,8160,Note_on_c,3,77,41
1,8160,Text_t,26288,NA,NA
1,8280,Note_off_c,2,57,50
1,8280,Note_off_c,2,62,42
1,8280,Note_off_c,2,65,42
1,8280,Note_off_c,3,74,41
1,8280,Note_off_c,3,77,41
1,8280,Note_on_c,2,61,55
1,8280,Note_on_c,2,64,55
1,8280,Note_on_c,3,73,57
1,8280,Note_on_c,3,76,57
1,8280,Text_t,82.1918,NA,NA
1,8280,Text_t,26728,NA,NA
1,8280,Text_t,<,NA,NA
1,8280,Tempo,730000,NA,NA
1,8370,Note_off_c,2,61,55
1,8370,Note_off_c,2,64,55
1,8370,Note_off_c,3,73,57
1,8370,Note_off_c,3,76,57
1,8370,Note_on_c,2,57,45
1,8370,Note_on_c,2,61,45
1,8370,Note_on_c,3,69,51
1,8370,Note_on_c,3,73,51
1,8400,Note_off_c,2,57,45
1,8400,Note_off_c,2,61,45
1,8400,Note_off_c,3,69,51
1,8400,Note_off_c,3,73,51
1,8400,Note_on_c,2,45,44
1,8400,Note_on_c,2,57,44
1,8400,Note_on_c,3,61,44
1,8400,Note_on_c,3,69,44
1,8400,Text_t,69.7674,NA,NA
1,8400,Text_t,27458,NA,NA
1,8400,Tempo,860001,NA,NA
1,8520,Text_t,28318,NA,NA
1,8640,Note_off_c,2,45,44
1,8640,Note_off_c,2,57,44
1,8640,Note_off_c,3,61,44
1,8640,Note_off_c,3,69,44
1,8640,Note_on_c,2,48,53
1,8640,Note_on_c,2,55,53
1,8640,Note_on_c,2,60,53
1,8640,Note_on_c,3,72,57
1,8640,Note_on_c,3,64,57
1,8640,Note_on_c,3,70,57
1,8640,Text_t,150,NA,NA
1,8640,Text_t,29178,NA,NA
1,8640,Tempo,400000,NA,NA
1,8730,Note_off_c,3,72,57
1,8730,Note_on_c,3,72,49
1,8760,Note_off_c,2,48,53
1,8760,Note_off_c,2,55,53
1,8760,Note_off_c,2,60,53
1,8760,Note_off_c,3,64,57
1,8760,Note_off_c,3,70,57
1,8760,Note_off_c,3,72,49
1,8760,Note_on_c,2,53,43
1,8760,Note_on_c,2,60,43
1,8760,Note_on_c,3,69,52
1,8760,Note_on_c,3,72,52
1,8760,Text_t,29578,NA,NA
1,8880,Note_off_c,2,53,43
1,8880,Note_off_c,2,60,43
1,8880,Note_off_c,3,69,52
1,8880,Note_off_c,3,72,52
1,8880,Note_on_c,2,53,42
1,8880,Note_on_c,2,60,42
1,8880,Note_on_c,3,69,44
1,8880,Note_on_c,3,77,44
1,8880,Text_t,171.429,NA,NA
1,8880,Text_t,29978,NA,NA
1,8880,Tempo,349999,NA,NA
1,9000,Note_off_c,2,53,42
1,9000,Note_off_c,2,60,42
1,9000,Note_off_c,3,69,44
1,9000,Note_off_c,3,77,44
1,9000,Note_on_c,2,55,54
1,9000,Note_on_c,2,60,54
1,9000,Note_on_c,2,48,54
1,9000,Note_on_c,3,67,59
1,9000,Note_on_c,3,76,59
1,9000,Text_t,142.857,NA,NA
1,9000,Text_t,30328,NA,NA
1,9000,Tempo,420000,NA,NA
1,9090,Note_off_c,2,55,54
1,9090,Note_off_c,2,60,54
1,9090,Note_off_c,3,67,59
1,9090,Note_off_c,3,76,59
1,9090,Note_on_c,2,59,45
1,9090,Note_on_c,3,65,47
1,9090,Note_on_c,3,74,47
1,9120,Note_off_c,2,59,45
1,9120,Note_off_c,3,65,47
1,9120,Note_off_c,3,74,47
1,9120,Note_on_c,2,60,45
1,9120,Note_on_c,3,64,46
1,9120,Note_on_c,3,72,46
1,9120,Text_t,173.913,NA,NA
1,9120,Text_t,30748,NA,NA
1,9120,Tempo,345000,NA,NA
1,9240,Text_t,31093,NA,NA
1,9360,Note_off_c,2,48,54
1,9360,Note_off_c,2,60,45
1,9360,Note_off_c,3,64,46
1,9360,Note_off_c,3,72,46
1,9360,Note_on_c,2,50,52
1,9360,Note_on_c,2,57,52
1,9360,Note_on_c,3,65,50
1,9360,Note_on_c,3,69,50
1,9360,Text_t,153.846,NA,NA
1,9360,Text_t,31438,NA,NA
1,9360,Tempo,390000,NA,NA
1,9450,Note_off_c,2,50,52
1,9450,Note_off_c,2,57,52
1,9450,Note_off_c,3,65,50
1,9450,Note_off_c,3,69,50
1,9450,Note_on_c,2,50,46
1,9450,Note_on_c,2,57,46
1,9450,Note_on_c,3,65,47
1,9450,Note_on_c,3,69,47
1,9480,Note_off_c,2,50,46
1,9480,Note_off_c,2,57,46
1,9480,Note_off_c,3,65,47
1,9480,Note_off_c,3,69,47
1,9480,Note_on_c,2,50,54
1,9480,Note_on_c,2,57,54
1,9480,Note_on_c,3,65,47
1,9480,Note_on_c,3,69,47
1,9480,Text_t,166.667,NA,NA
1,9480,Text_t,31828,NA,NA
1,9480,Tempo,359999,NA,NA
1,9600,Note_off_c,2,50,54
1,9600,Note_off_c,2,57,54
1,9600,Note_off_c,3,65,47
1,9600,Note_off_c,3,69,47
1,9600,Note_on_c,2,50,49
1,9600,Note_on_c,2,57,49
1,9600,Note_on_c,3,65,52
1,9600,Note_on_c,3,74,52
1,9600,Text_t,32188,NA,NA
1,9720,Note_off_c,2,50,49
1,9720,Note_off_c,2,57,49
1,9720,Note_off_c,3,65,52
1,9720,Note_off_c,3,74,52
1,9720,Note_on_c,2,52,55
1,9720,Note_on_c,2,45,55
1,9720,Note_on_c,3,64,60
1,9720,Note_on_c,3,72,60
1,9720,Text_t,146.341,NA,NA
1,9720,Text_t,32548,NA,NA
1,9720,Tempo,410001,NA,NA
1,9810,Note_off_c,2,52,55
1,9810,Note_off_c,3,64,60
1,9810,Note_off_c,3,72,60
1,9810,Note_on_c,2,56,48
1,9810,Note_on_c,3,62,45
1,9810,Note_on_c,3,70,45
1,9840,Note_off_c,2,56,48
1,9840,Note_off_c,3,62,45
1,9840,Note_off_c,3,70,45
1,9840,Note_on_c,2,57,51
1,9840,Note_on_c,3,60,45
1,9840,Note_on_c,3,69,45
1,9840,Text_t,182.927,NA,NA
1,9840,Text_t,32958,NA,NA
1,9840,Tempo,328000,NA,NA
1,9960,Text_t,178.571,NA,NA
1,9960,Text_t,33286,NA,NA
1,9960,Tempo,336001,NA,NA
1,10080,Note_off_c,2,45,55
1,10080,Note_off_c,2,57,51
1,10080,Note_off_c,3,60,45
1,10080,Note_off_c,3,69,45
1,10080,Note_on_c,2,46,51
1,10080,Note_on_c,2,53,51
1,10080,Note_on_c,3,62,54
1,10080,Note_on_c,3,65,54
1,10080,Text_t,151.515,NA,NA
1,10080,Text_t,33622,NA,NA
1,10080,Tempo,396000,NA,NA
1,10170,Note_off_c,2,46,51
1,10170,Note_off_c,2,53,51
1,10170,Note_off_c,3,62,54
1,10170,Note_off_c,3,65,54
1,10170,Note_on_c,2,46,50
1,10170,Note_on_c,2,53,50
1,10170,Note_on_c,3,62,48
1,10170,Note_on_c,3,65,48
1,10200,Note_off_c,2,46,50
1,10200,Note_off_c,2,53,50
1,10200,Note_off_c,3,62,48
1,10200,Note_off_c,3,65,48
1,10200,Note_on_c,2,46,45
1,10200,Note_on_c,2,53,45
1,10200,Note_on_c,3,62,52
1,10200,Note_on_c,3,65,52
1,10200,Text_t,171.429,NA,NA
1,10200,Text_t,34018,NA,NA
1,10200,Tempo,349999,NA,NA
1,10320,Note_off_c,2,46,45
1,10320,Note_off_c,2,53,45
1,10320,Note_off_c,3,62,52
1,10320,Note_off_c,3,65,52
1,10320,Note_on_c,2,46,54
1,10320,Note_on_c,2,53,54
1,10320,Note_on_c,3,62,53
1,10320,Note_on_c,3,70,53
1,10320,Text_t,176.471,NA,NA
1,10320,Text_t,34368,NA,NA
1,10320,Tempo,339999,NA,NA
1,10440,Note_off_c,2,46,54
1,10440,Note_off_c,2,53,54
1,10440,Note_off_c,3,62,53
1,10440,Note_off_c,3,70,53
1,10440,Note_on_c,2,41,57
1,10440,Note_on_c,2,53,57
1,10440,Note_on_c,3,60,58
1,10440,Note_on_c,3,69,58
1,10440,Text_t,162.162,NA,NA
1,10440,Text_t,34708,NA,NA
1,10440,Tempo,370000,NA,NA
1,10530,Note_off_c,2,41,57
1,10530,Note_off_c,2,53,57
1,10530,Note_off_c,3,60,58
1,10530,Note_off_c,3,69,58
1,10530,Note_on_c,2,41,53
1,10530,Note_on_c,2,53,53
1,10530,Note_on_c,3,58,49
1,10530,Note_on_c,3,67,49
1,10560,Note_off_c,2,41,53
1,10560,Note_off_c,2,53,53
1,10560,Note_off_c,3,58,49
1,10560,Note_off_c,3,67,49
1,10560,Note_on_c,2,41,54
1,10560,Note_on_c,2,53,54
1,10560,Note_on_c,3,57,48
1,10560,Note_on_c,3,65,48
1,10560,Text_t,35078,NA,NA
1,10680,Note_off_c,2,41,54
1,10680,Note_off_c,2,53,54
1,10680,Note_off_c,3,57,48
1,10680,Note_off_c,3,65,48
1,10680,Note_on_c,2,46,47
1,10680,Note_on_c,2,53,47
1,10680,Note_on_c,3,62,48
1,10680,Note_on_c,3,70,48
1,10680,Text_t,176.471,NA,NA
1,10680,Text_t,35448,NA,NA
1,10680,Tempo,339999,NA,NA
1,10800,Note_off_c,2,46,47
1,10800,Note_off_c,2,53,47
1,10800,Note_off_c,3,62,48
1,10800,Note_off_c,3,70,48
1,10800,Note_on_c,2,53,56
1,10800,Note_on_c,2,41,56
1,10800,Note_on_c,3,60,58
1,10800,Note_on_c,3,69,58
1,10800,Text_t,153.846,NA,NA
1,10800,Text_t,35788,NA,NA
1,10800,Tempo,390000,NA,NA
1,10890,Note_off_c,2,53,56
1,10890,Note_off_c,3,60,58
1,10890,Note_off_c,3,69,58
1,10890,Note_on_c,2,53,53
1,10890,Note_on_c,3,58,48
1,10890,Note_on_c,3,67,48
1,10920,Note_off_c,2,53,53
1,10920,Note_off_c,3,58,48
1,10920,Note_off_c,3,67,48
1,10920,Note_on_c,2,53,52
1,10920,Note_on_c,3,57,51
1,10920,Note_on_c,3,65,51
1,10920,Text_t,162.602,NA,NA
1,10920,Text_t,36178,NA,NA
1,10920,Tempo,368999,NA,NA
1,11040,Note_off_c,2,41,56
1,11040,Note_off_c,2,53,52
1,11040,Note_off_c,3,57,51
1,11040,Note_off_c,3,65,51
1,11040,Note_on_c,2,55,73
1,11040,Note_on_c,2,46,56
1,11040,Note_on_c,3,62,72
1,11040,Note_on_c,3,67,94
1,11040,Text_t,124.74,NA,NA
1,11040,Text_t,36547,NA,NA
1,11040,Tempo,481000,NA,NA
1,11160,Note_off_c,2,55,73
1,11160,Note_off_c,2,46,56
1,11160,Note_off_c,3,62,72
1,11160,Note_off_c,3,67,94
1,11160,Note_on_c,2,48,57
1,11160,Note_on_c,3,55,53
1,11160,Note_on_c,3,62,53
1,11160,Text_t,90.9091,NA,NA
1,11160,Text_t,37028,NA,NA
1,11160,Tempo,660000,NA,NA
1,11220,Note_off_c,3,55,53
1,11220,Note_off_c,3,62,53
1,11220,Note_on_c,3,60,51
1,11220,Note_on_c,3,64,51
1,11280,Note_off_c,2,48,57
1,11280,Note_off_c,3,60,51
1,11280,Note_off_c,3,64,51
1,11280,Note_on_c,2,41,55
1,11280,Note_on_c,2,53,55
1,11280,Note_on_c,3,57,50
1,11280,Note_on_c,3,65,50
1,11280,Text_t,71.0059,NA,NA
1,11280,Text_t,37688,NA,NA
1,11280,Tempo,845000,NA,NA
1,11400,Text_t,38533,NA,NA
1,11520,Note_off_c,2,41,55
1,11520,Note_off_c,2,53,55
1,11520,Note_off_c,3,57,50
1,11520,Note_off_c,3,65,50
1,11520,Note_on_c,2,58,61
1,11520,Note_on_c,2,65,61
1,11520,Text_t,200,NA,NA
1,11520,Text_t,39378,NA,NA
1,11520,Tempo,300000,NA,NA
1,11640,Note_off_c,2,58,61
1,11640,Note_off_c,2,65,61
1,11640,Note_on_c,2,58,50
1,11640,Note_on_c,2,65,50
1,11640,Text_t,187.5,NA,NA
1,11640,Text_t,39678,NA,NA
1,11640,Tempo,320000,NA,NA
1,11760,Note_off_c,2,58,50
1,11760,Note_off_c,2,65,50
1,11760,Note_on_c,2,58,56
1,11760,Note_on_c,2,65,56
1,11760,Text_t,214.286,NA,NA
1,11760,Text_t,39998,NA,NA
1,11760,Tempo,280000,NA,NA
1,11880,Note_off_c,2,58,56
1,11880,Note_off_c,2,65,56
1,11880,Note_on_c,2,58,62
1,11880,Note_on_c,2,65,62
1,11880,Text_t,206.897,NA,NA
1,11880,Text_t,40278,NA,NA
1,11880,Tempo,289999,NA,NA
1,12000,Note_off_c,2,58,62
1,12000,Note_off_c,2,65,62
1,12000,Note_on_c,2,58,59
1,12000,Note_on_c,2,65,59
1,12000,Text_t,214.286,NA,NA
1,12000,Text_t,40568,NA,NA
1,12000,Tempo,280000,NA,NA
1,12120,Note_off_c,2,58,59
1,12120,Note_off_c,2,65,59
1,12120,Note_on_c,2,58,53
1,12120,Note_on_c,2,65,53
1,12120,Text_t,206.897,NA,NA
1,12120,Text_t,40848,NA,NA
1,12120,Tempo,289999,NA,NA
1,12240,Note_off_c,2,58,53
1,12240,Note_off_c,2,65,53
1,12240,Note_on_c,2,58,55
1,12240,Note_on_c,2,65,55
1,12240,Text_t,230.769,NA,NA
1,12240,Text_t,41138,NA,NA
1,12240,Tempo,260000,NA,NA
1,12360,Note_off_c,2,58,55
1,12360,Note_off_c,2,65,55
1,12360,Note_on_c,2,58,51
1,12360,Note_on_c,2,65,51
1,12360,Text_t,187.5,NA,NA
1,12360,Text_t,41398,NA,NA
1,12360,Tempo,320000,NA,NA
1,12480,Note_off_c,2,58,51
1,12480,Note_off_c,2,65,51
1,12480,Note_on_c,2,58,54
1,12480,Note_on_c,2,65,54
1,12480,Text_t,240,NA,NA
1,12480,Text_t,41718,NA,NA
1,12480,Tempo,250000,NA,NA
1,12600,Note_off_c,2,58,54
1,12600,Note_off_c,2,65,54
1,12600,Note_on_c,2,58,63
1,12600,Note_on_c,2,65,63
1,12600,Text_t,193.548,NA,NA
1,12600,Text_t,41968,NA,NA
1,12600,Tempo,310001,NA,NA
1,12720,Note_off_c,2,58,63
1,12720,Note_off_c,2,65,63
1,12720,Note_on_c,2,58,50
1,12720,Note_on_c,2,65,50
1,12720,Text_t,230.769,NA,NA
1,12720,Text_t,42278,NA,NA
1,12720,Tempo,260000,NA,NA
1,12840,Note_off_c,2,58,50
1,12840,Note_off_c,2,65,50
1,12840,Note_on_c,2,58,69
1,12840,Note_on_c,2,65,90
1,12840,Text_t,42538,NA,NA
1,12960,Note_off_c,2,58,69
1,12960,Note_off_c,2,65,90
1,12960,Note_on_c,2,58,54
1,12960,Note_on_c,2,65,54
1,12960,Note_on_c,3,89,55
1,12960,Text_t,214.286,NA,NA
1,12960,Text_t,42798,NA,NA
1,12960,Text_t,p,NA,NA
1,12960,Tempo,280000,NA,NA
1,13080,Note_off_c,2,58,54
1,13080,Note_off_c,2,65,54
1,13080,Note_on_c,2,58,50
1,13080,Note_on_c,2,65,50
1,13080,Text_t,250,NA,NA
1,13080,Text_t,43078,NA,NA
1,13080,Tempo,240000,NA,NA
1,13140,Note_off_c,3,89,55
1,13140,Note_on_c,3,88,43
1,13200,Note_off_c,2,58,50
1,13200,Note_off_c,2,65,50
1,13200,Note_off_c,3,88,43
1,13200,Note_on_c,2,58,48
1,13200,Note_on_c,2,65,48
1,13200,Note_on_c,3,89,48
1,13200,Text_t,43318,NA,NA
1,13260,Note_off_c,3,89,48
1,13260,Note_on_c,3,86,45
1,13320,Note_off_c,2,58,48
1,13320,Note_off_c,2,65,48
1,13320,Note_off_c,3,86,45
1,13320,Note_on_c,2,58,52
1,13320,Note_on_c,2,65,52
1,13320,Note_on_c,3,82,49
1,13320,Text_t,240,NA,NA
1,13320,Text_t,43558,NA,NA
1,13320,Tempo,250000,NA,NA
1,13380,Note_off_c,3,82,49
1,13380,Note_on_c,3,86,50
1,13440,Note_off_c,2,58,52
1,13440,Note_off_c,2,65,52
1,13440,Note_off_c,3,86,50
1,13440,Note_on_c,2,58,41
1,13440,Note_on_c,2,65,41
1,13440,Note_on_c,3,84,41
1,13440,Text_t,230.769,NA,NA
1,13440,Text_t,43808,NA,NA
1,13440,Tempo,260000,NA,NA
1,13500,Note_off_c,3,84,41
1,13500,Note_on_c,3,88,43
1,13560,Note_off_c,2,58,41
1,13560,Note_off_c,2,65,41
1,13560,Note_off_c,3,88,43
1,13560,Note_on_c,2,58,46
1,13560,Note_on_c,2,65,46
1,13560,Note_on_c,3,89,45
1,13560,Text_t,44068,NA,NA
1,13680,Note_off_c,2,58,46
1,13680,Note_off_c,2,65,46
1,13680,Note_off_c,3,89,45
1,13680,Note_on_c,2,58,54
1,13680,Note_on_c,2,65,54
1,13680,Note_on_c,3,82,54
1,13680,Text_t,44328,NA,NA
1,13740,Note_off_c,3,82,54
1,13740,Note_on_c,3,86,50
1,13800,Note_off_c,2,58,54
1,13800,Note_off_c,2,65,54
1,13800,Note_off_c,3,86,50
1,13800,Note_on_c,2,58,45
1,13800,Note_on_c,2,65,45
1,13800,Note_on_c,3,84,46
1,13800,Text_t,222.222,NA,NA
1,13800,Text_t,44588,NA,NA
1,13800,Tempo,270000,NA,NA
1,13860,Note_off_c,3,84,46
1,13860,Note_on_c,3,88,49
1,13920,Note_off_c,2,58,45
1,13920,Note_off_c,2,65,45
1,13920,Note_off_c,3,88,49
1,13920,Note_on_c,2,58,45
1,13920,Note_on_c,2,65,45
1,13920,Note_on_c,3,89,51
1,13920,Text_t,240,NA,NA
1,13920,Text_t,44858,NA,NA
1,13920,Tempo,250000,NA,NA
1,13980,Note_off_c,3,89,51
1,13980,Note_on_c,3,86,48
1,14040,Note_off_c,2,58,45
1,14040,Note_off_c,2,65,45
1,14040,Note_off_c,3,86,48
1,14040,Note_on_c,2,58,54
1,14040,Note_on_c,2,65,54
1,14040,Note_on_c,3,82,55
1,14040,Text_t,259.74,NA,NA
1,14040,Text_t,45108,NA,NA
1,14040,Tempo,231000,NA,NA
1,14100,Note_off_c,3,82,55
1,14100,Note_on_c,3,86,43
1,14160,Note_off_c,2,58,54
1,14160,Note_off_c,2,65,54
1,14160,Note_off_c,3,86,43
1,14160,Note_on_c,2,58,45
1,14160,Note_on_c,2,65,45
1,14160,Note_on_c,3,84,42
1,14160,Text_t,240.964,NA,NA
1,14160,Text_t,45339,NA,NA
1,14160,Tempo,249000,NA,NA
1,14220,Note_off_c,3,84,42
1,14220,Note_on_c,3,81,50
1,14280,Note_off_c,2,58,45
1,14280,Note_off_c,2,65,45
1,14280,Note_off_c,3,81,50
1,14280,Note_on_c,2,58,45
1,14280,Note_on_c,2,65,45
1,14280,Note_on_c,3,77,62
1,14280,Text_t,206.897,NA,NA
1,14280,Text_t,45588,NA,NA
1,14280,Tempo,289999,NA,NA
1,14400,Note_off_c,2,58,45
1,14400,Note_off_c,2,65,45
1,14400,Note_off_c,3,77,62
1,14400,Note_on_c,2,58,47
1,14400,Note_on_c,2,65,47
1,14400,Note_on_c,3,89,48
1,14400,Text_t,230.769,NA,NA
1,14400,Text_t,45878,NA,NA
1,14400,Tempo,260000,NA,NA
1,14520,Note_off_c,2,58,47
1,14520,Note_off_c,2,65,47
1,14520,Note_on_c,2,58,47
1,14520,Note_on_c,2,65,47
1,14520,Text_t,259.74,NA,NA
1,14520,Text_t,46138,NA,NA
1,14520,Tempo,231000,NA,NA
1,14580,Note_off_c,3,89,48
1,14580,Note_on_c,3,88,47
1,14640,Note_off_c,2,58,47
1,14640,Note_off_c,2,65,47
1,14640,Note_off_c,3,88,47
1,14640,Note_on_c,2,58,43
1,14640,Note_on_c,2,65,43
1,14640,Note_on_c,3,89,50
1,14640,Text_t,237.154,NA,NA
1,14640,Text_t,46369,NA,NA
1,14640,Tempo,253000,NA,NA
1,14700,Note_off_c,3,89,50
1,14700,Note_on_c,3,86,47
1,14760,Note_off_c,2,58,43
1,14760,Note_off_c,2,65,43
1,14760,Note_off_c,3,86,47
1,14760,Note_on_c,2,58,56
1,14760,Note_on_c,2,65,56
1,14760,Note_on_c,3,82,48
1,14760,Text_t,264.317,NA,NA
1,14760,Text_t,46622,NA,NA
1,14760,Tempo,227000,NA,NA
1,14820,Note_off_c,3,82,48
1,14820,Note_on_c,3,86,46
1,14880,Note_off_c,2,58,56
1,14880,Note_off_c,2,65,56
1,14880,Note_off_c,3,86,46
1,14880,Note_on_c,2,58,51
1,14880,Note_on_c,2,65,51
1,14880,Note_on_c,3,84,41
1,14880,Text_t,224.719,NA,NA
1,14880,Text_t,46849,NA,NA
1,14880,Tempo,267000,NA,NA
1,14940,Note_off_c,3,84,41
1,14940,Note_on_c,3,88,44
1,15000,Note_off_c,2,58,51
1,15000,Note_off_c,2,65,51
1,15000,Note_off_c,3,88,44
1,15000,Note_on_c,2,58,55
1,15000,Note_on_c,2,65,72
1,15000,Note_on_c,3,89,46
1,15000,Text_t,217.391,NA,NA
1,15000,Text_t,47116,NA,NA
1,15000,Tempo,276000,NA,NA
1,15120,Note_off_c,2,58,55
1,15120,Note_off_c,2,65,72
1,15120,Note_off_c,3,89,46
1,15120,Note_on_c,2,58,57
1,15120,Note_on_c,2,65,57
1,15120,Note_on_c,3,82,55
1,15120,Text_t,223.048,NA,NA
1,15120,Text_t,47392,NA,NA
1,15120,Tempo,269000,NA,NA
1,15180,Note_off_c,3,82,55
1,15180,Note_on_c,3,86,47
1,15240,Note_off_c,2,58,57
1,15240,Note_off_c,2,65,57
1,15240,Note_off_c,3,86,47
1,15240,Note_on_c,2,58,45
1,15240,Note_on_c,2,65,45
1,15240,Note_on_c,3,84,49
1,15240,Text_t,209.059,NA,NA
1,15240,Text_t,47661,NA,NA
1,15240,Tempo,287000,NA,NA
1,15300,Note_off_c,3,84,49
1,15300,Note_on_c,3,88,46
1,15360,Note_off_c,2,58,45
1,15360,Note_off_c,2,65,45
1,15360,Note_off_c,3,88,46
1,15360,Note_on_c,2,58,42
1,15360,Note_on_c,2,65,42
1,15360,Note_on_c,3,89,51
1,15360,Text_t,214.286,NA,NA
1,15360,Text_t,47948,NA,NA
1,15360,Tempo,280000,NA,NA
1,15420,Note_off_c,3,89,51
1,15420,Note_on_c,3,86,49
1,15480,Note_off_c,2,58,42
1,15480,Note_off_c,2,65,42
1,15480,Note_off_c,3,86,49
1,15480,Note_on_c,2,58,55
1,15480,Note_on_c,2,65,55
1,15480,Note_on_c,3,82,48
1,15480,Text_t,193.548,NA,NA
1,15480,Text_t,48228,NA,NA
1,15480,Tempo,310001,NA,NA
1,15540,Note_off_c,3,82,48
1,15540,Note_on_c,3,86,41
1,15600,Note_off_c,2,58,55
1,15600,Note_off_c,2,65,55
1,15600,Note_off_c,3,86,41
1,15600,Note_on_c,2,60,43
1,15600,Note_on_c,2,64,43
1,15600,Note_on_c,2,70,43
1,15600,Note_on_c,3,84,45
1,15600,Text_t,176.471,NA,NA
1,15600,Text_t,48538,NA,NA
1,15600,Tempo,339999,NA,NA
1,15660,Note_off_c,3,84,45
1,15660,Note_on_c,3,82,42
1,15720,Note_off_c,2,60,43
1,15720,Note_off_c,2,64,43
1,15720,Note_off_c,2,70,43
1,15720,Note_off_c,3,82,42
1,15720,Note_on_c,2,60,44
1,15720,Note_on_c,2,64,44
1,15720,Note_on_c,2,70,44
1,15720,Note_on_c,3,79,42
1,15720,Text_t,48878,NA,NA
1,15840,Note_off_c,2,60,44
1,15840,Note_off_c,2,64,44
1,15840,Note_off_c,2,70,44
1,15840,Note_off_c,3,79,42
1,15840,Note_on_c,2,65,86
1,15840,Note_on_c,2,69,86
1,15840,Note_on_c,3,77,87
1,15840,Text_t,142.857,NA,NA
1,15840,Text_t,49218,NA,NA
1,15840,Text_t,f,NA,NA
1,15840,Tempo,420000,NA,NA
1,15930,Note_off_c,2,65,86
1,15930,Note_off_c,2,69,86
1,15930,Note_off_c,3,77,87
1,15930,Note_on_c,2,53,89
1,15930,Note_on_c,2,60,89
1,15930,Note_on_c,2,65,89
1,15930,Note_on_c,3,69,88
1,15930,Note_on_c,3,72,88
1,15960,Note_off_c,2,53,89
1,15960,Note_off_c,2,60,89
1,15960,Note_off_c,2,65,89
1,15960,Note_off_c,3,69,88
1,15960,Note_off_c,3,72,88
1,15960,Note_on_c,2,53,81
1,15960,Note_on_c,2,60,81
1,15960,Note_on_c,2,65,81
1,15960,Note_on_c,3,69,88
1,15960,Note_on_c,3,72,88
1,15960,Text_t,171.429,NA,NA
1,15960,Text_t,49638,NA,NA
1,15960,Tempo,349999,NA,NA
1,16080,Note_off_c,2,53,81
1,16080,Note_off_c,2,60,81
1,16080,Note_off_c,2,65,81
1,16080,Note_off_c,3,69,88
1,16080,Note_off_c,3,72,88
1,16080,Note_on_c,2,53,81
1,16080,Note_on_c,2,60,81
1,16080,Note_on_c,3,69,88
1,16080,Note_on_c,3,77,88
1,16080,Text_t,176.471,NA,NA
1,16080,Text_t,49988,NA,NA
1,16080,Tempo,339999,NA,NA
1,16200,Note_off_c,2,53,81
1,16200,Note_off_c,2,60,81
1,16200,Note_off_c,3,69,88
1,16200,Note_off_c,3,77,88
1,16200,Note_on_c,2,55,90
1,16200,Note_on_c,2,60,90
1,16200,Note_on_c,2,48,90
1,16200,Note_on_c,3,67,94
1,16200,Note_on_c,3,76,94
1,16200,Text_t,146.341,NA,NA
1,16200,Text_t,50328,NA,NA
1,16200,Tempo,410001,NA,NA
1,16290,Note_off_c,2,55,90
1,16290,Note_off_c,2,60,90
1,16290,Note_off_c,3,67,94
1,16290,Note_off_c,3,76,94
1,16290,Note_on_c,2,59,87
1,16290,Note_on_c,3,65,82
1,16290,Note_on_c,3,74,82
1,16320,Note_off_c,2,59,87
1,16320,Note_off_c,3,65,82
1,16320,Note_off_c,3,74,82
1,16320,Note_on_c,2,60,84
1,16320,Note_on_c,3,64,86
1,16320,Note_on_c,3,72,86
1,16320,Text_t,173.913,NA,NA
1,16320,Text_t,50738,NA,NA
1,16320,Tempo,345000,NA,NA
1,16440,Text_t,51083,NA,NA
1,16560,Note_off_c,2,48,90
1,16560,Note_off_c,2,60,84
1,16560,Note_off_c,3,64,86
1,16560,Note_off_c,3,72,86
1,16560,Note_on_c,2,50,92
1,16560,Note_on_c,2,57,92
1,16560,Note_on_c,3,65,88
1,16560,Note_on_c,3,69,88
1,16560,Text_t,157.895,NA,NA
1,16560,Text_t,51428,NA,NA
1,16560,Tempo,379999,NA,NA
1,16650,Note_off_c,2,50,92
1,16650,Note_off_c,2,57,92
1,16650,Note_off_c,3,65,88
1,16650,Note_off_c,3,69,88
1,16650,Note_on_c,2,50,86
1,16650,Note_on_c,2,57,86
1,16650,Note_on_c,3,65,85
1,16650,Note_on_c,3,69,85
1,16680,Note_off_c,2,50,86
1,16680,Note_off_c,2,57,86
1,16680,Note_off_c,3,65,85
1,16680,Note_off_c,3,69,85
1,16680,Note_on_c,2,50,90
1,16680,Note_on_c,2,57,90
1,16680,Note_on_c,3,65,85
1,16680,Note_on_c,3,69,85
1,16680,Text_t,176.471,NA,NA
1,16680,Text_t,51808,NA,NA
1,16680,Tempo,339999,NA,NA
1,16800,Note_off_c,2,50,90
1,16800,Note_off_c,2,57,90
1,16800,Note_off_c,3,65,85
1,16800,Note_off_c,3,69,85
1,16800,Note_on_c,2,50,84
1,16800,Note_on_c,2,57,84
1,16800,Note_on_c,3,65,83
1,16800,Note_on_c,3,74,83
1,16800,Text_t,52148,NA,NA
1,16920,Note_off_c,2,50,84
1,16920,Note_off_c,2,57,84
1,16920,Note_off_c,3,65,83
1,16920,Note_off_c,3,74,83
1,16920,Note_on_c,2,52,93
1,16920,Note_on_c,2,45,93
1,16920,Note_on_c,3,64,96
1,16920,Note_on_c,3,72,96
1,16920,Text_t,150,NA,NA
1,16920,Text_t,52488,NA,NA
1,16920,Tempo,400000,NA,NA
1,17010,Note_off_c,2,52,93
1,17010,Note_off_c,3,64,96
1,17010,Note_off_c,3,72,96
1,17010,Note_on_c,2,56,83
1,17010,Note_on_c,3,62,85
1,17010,Note_on_c,3,70,85
1,17040,Note_off_c,2,56,83
1,17040,Note_off_c,3,62,85
1,17040,Note_off_c,3,70,85
1,17040,Note_on_c,2,57,86
1,17040,Note_on_c,3,60,87
1,17040,Note_on_c,3,69,87
1,17040,Text_t,174.927,NA,NA
1,17040,Text_t,52888,NA,NA
1,17040,Tempo,343000,NA,NA
1,17160,Text_t,195.44,NA,NA
1,17160,Text_t,53231,NA,NA
1,17160,Tempo,307000,NA,NA
1,17280,Note_off_c,2,45,93
1,17280,Note_off_c,2,57,86
1,17280,Note_off_c,3,60,87
1,17280,Note_off_c,3,69,87
1,17280,Note_on_c,2,46,86
1,17280,Note_on_c,2,53,86
1,17280,Note_on_c,3,62,88
1,17280,Note_on_c,3,65,88
1,17280,Text_t,162.162,NA,NA
1,17280,Text_t,53538,NA,NA
1,17280,Tempo,370000,NA,NA
1,17370,Note_off_c,2,46,86
1,17370,Note_off_c,2,53,86
1,17370,Note_off_c,3,62,88
1,17370,Note_off_c,3,65,88
1,17370,Note_on_c,2,46,84
1,17370,Note_on_c,2,53,84
1,17370,Note_on_c,3,62,86
1,17370,Note_on_c,3,65,86
1,17400,Note_off_c,2,46,84
1,17400,Note_off_c,2,53,84
1,17400,Note_off_c,3,62,86
1,17400,Note_off_c,3,65,86
1,17400,Note_on_c,2,46,86
1,17400,Note_on_c,2,53,86
1,17400,Note_on_c,3,62,89
1,17400,Note_on_c,3,65,89
1,17400,Text_t,181.818,NA,NA
1,17400,Text_t,53908,NA,NA
1,17400,Tempo,330000,NA,NA
1,17520,Note_off_c,2,46,86
1,17520,Note_off_c,2,53,86
1,17520,Note_off_c,3,62,89
1,17520,Note_off_c,3,65,89
1,17520,Note_on_c,2,46,85
1,17520,Note_on_c,2,53,85
1,17520,Note_on_c,3,62,82
1,17520,Note_on_c,3,70,82
1,17520,Text_t,187.5,NA,NA
1,17520,Text_t,54238,NA,NA
1,17520,Tempo,320000,NA,NA
1,17640,Note_off_c,2,46,85
1,17640,Note_off_c,2,53,85
1,17640,Note_off_c,3,62,82
1,17640,Note_off_c,3,70,82
1,17640,Note_on_c,2,41,86
1,17640,Note_on_c,2,53,86
1,17640,Note_on_c,3,60,93
1,17640,Note_on_c,3,69,93
1,17640,Text_t,176.471,NA,NA
1,17640,Text_t,54558,NA,NA
1,17640,Tempo,339999,NA,NA
1,17730,Note_off_c,2,41,86
1,17730,Note_off_c,2,53,86
1,17730,Note_off_c,3,60,93
1,17730,Note_off_c,3,69,93
1,17730,Note_on_c,2,41,85
1,17730,Note_on_c,2,53,85
1,17730,Note_on_c,3,58,89
1,17730,Note_on_c,3,67,89
1,17760,Note_off_c,2,41,85
1,17760,Note_off_c,2,53,85
1,17760,Note_off_c,3,58,89
1,17760,Note_off_c,3,67,89
1,17760,Note_on_c,2,41,87
1,17760,Note_on_c,2,53,87
1,17760,Note_on_c,3,57,83
1,17760,Note_on_c,3,65,83
1,17760,Text_t,54898,NA,NA
1,17880,Note_off_c,2,41,87
1,17880,Note_off_c,2,53,87
1,17880,Note_off_c,3,57,83
1,17880,Note_off_c,3,65,83
1,17880,Note_on_c,2,46,85
1,17880,Note_on_c,2,53,85
1,17880,Note_on_c,3,62,82
1,17880,Note_on_c,3,70,82
1,17880,Text_t,181.818,NA,NA
1,17880,Text_t,55238,NA,NA
1,17880,Tempo,330000,NA,NA
1,18000,Note_off_c,2,46,85
1,18000,Note_off_c,2,53,85
1,18000,Note_off_c,3,62,82
1,18000,Note_off_c,3,70,82
1,18000,Note_on_c,2,53,86
1,18000,Note_on_c,2,41,86
1,18000,Note_on_c,3,60,86
1,18000,Note_on_c,3,69,86
1,18000,Text_t,171.429,NA,NA
1,18000,Text_t,55568,NA,NA
1,18000,Tempo,349999,NA,NA
1,18090,Note_off_c,2,53,86
1,18090,Note_off_c,3,60,86
1,18090,Note_off_c,3,69,86
1,18090,Note_on_c,2,53,90
1,18090,Note_on_c,3,58,88
1,18090,Note_on_c,3,67,88
1,18120,Note_off_c,2,53,90
1,18120,Note_off_c,3,58,88
1,18120,Note_off_c,3,67,88
1,18120,Note_on_c,2,53,82
1,18120,Note_on_c,3,57,90
1,18120,Note_on_c,3,65,90
1,18120,Text_t,176.471,NA,NA
1,18120,Text_t,55918,NA,NA
1,18120,Tempo,339999,NA,NA
1,18240,Note_off_c,2,41,86
1,18240,Note_off_c,2,53,82
1,18240,Note_off_c,3,57,90
1,18240,Note_off_c,3,65,90
1,18240,Note_on_c,2,50,89
1,18240,Note_on_c,2,43,89
1,18240,Note_on_c,3,59,90
1,18240,Note_on_c,3,67,90
1,18240,Text_t,117.647,NA,NA
1,18240,Text_t,56258,NA,NA
1,18240,Tempo,510000,NA,NA
1,18300,Note_off_c,2,50,89
1,18300,Note_on_c,2,55,85
1,18360,Note_off_c,2,43,89
1,18360,Note_off_c,2,55,85
1,18360,Note_off_c,3,59,90
1,18360,Note_off_c,3,67,90
1,18360,Note_on_c,2,55,93
1,18360,Note_on_c,2,48,93
1,18360,Note_on_c,3,60,94
1,18360,Note_on_c,3,64,94
1,18360,Text_t,116.732,NA,NA
1,18360,Text_t,56768,NA,NA
1,18360,Tempo,513998,NA,NA
1,18450,Note_off_c,2,55,93
1,18450,Note_off_c,3,60,94
1,18450,Note_off_c,3,64,94
1,18450,Note_on_c,2,53,84
1,18450,Note_on_c,3,62,87
1,18480,Note_off_c,2,53,84
1,18480,Note_off_c,3,62,87
1,18480,Note_on_c,2,52,90
1,18480,Note_on_c,3,60,87
1,18480,Text_t,118.577,NA,NA
1,18480,Text_t,57282,NA,NA
1,18480,Tempo,506000,NA,NA
1,18600,Text_t,136.364,NA,NA
1,18600,Text_t,57788,NA,NA
1,18600,Tempo,439999,NA,NA
1,18720,Note_off_c,2,48,93
1,18720,Note_off_c,2,52,90
1,18720,Note_off_c,3,60,87
1,18720,Note_on_c,2,53,52
1,18720,Note_on_c,2,60,52
1,18720,Note_on_c,3,69,49
1,18720,Note_on_c,3,72,49
1,18720,Text_t,157.895,NA,NA
1,18720,Text_t,58228,NA,NA
1,18720,Text_t,p,NA,NA
1,18720,Tempo,379999,NA,NA
1,18810,Note_off_c,2,53,52
1,18810,Note_off_c,2,60,52
1,18810,Note_off_c,3,69,49
1,18810,Note_off_c,3,72,49
1,18810,Note_on_c,2,53,50
1,18810,Note_on_c,2,60,50
1,18810,Note_on_c,3,69,43
1,18810,Note_on_c,3,72,43
1,18840,Note_off_c,2,53,50
1,18840,Note_off_c,2,60,50
1,18840,Note_off_c,3,69,43
1,18840,Note_off_c,3,72,43
1,18840,Note_on_c,2,53,47
1,18840,Note_on_c,2,60,47
1,18840,Note_on_c,3,69,47
1,18840,Note_on_c,3,72,47
1,18840,Text_t,166.667,NA,NA
1,18840,Text_t,58608,NA,NA
1,18840,Tempo,359999,NA,NA
1,18960,Note_off_c,2,53,47
1,18960,Note_off_c,2,60,47
1,18960,Note_off_c,3,69,47
1,18960,Note_off_c,3,72,47
1,18960,Note_on_c,2,53,43
1,18960,Note_on_c,2,60,43
1,18960,Note_on_c,3,69,50
1,18960,Note_on_c,3,77,50
1,18960,Text_t,176.471,NA,NA
1,18960,Text_t,58968,NA,NA
1,18960,Tempo,339999,NA,NA
1,19080,Note_off_c,2,53,43
1,19080,Note_off_c,2,60,43
1,19080,Note_off_c,3,69,50
1,19080,Note_off_c,3,77,50
1,19080,Note_on_c,2,55,54
1,19080,Note_on_c,2,60,54
1,19080,Note_on_c,2,48,54
1,19080,Note_on_c,3,67,55
1,19080,Note_on_c,3,76,55
1,19080,Text_t,146.341,NA,NA
1,19080,Text_t,59308,NA,NA
1,19080,Tempo,410001,NA,NA
1,19170,Note_off_c,2,55,54
1,19170,Note_off_c,2,60,54
1,19170,Note_off_c,3,67,55
1,19170,Note_off_c,3,76,55
1,19170,Note_on_c,2,59,46
1,19170,Note_on_c,3,65,50
1,19170,Note_on_c,3,74,50
1,19200,Note_off_c,2,59,46
1,19200,Note_off_c,3,65,50
1,19200,Note_off_c,3,74,50
1,19200,Note_on_c,2,60,45
1,19200,Note_on_c,3,64,43
1,19200,Note_on_c,3,72,43
1,19200,Text_t,166.667,NA,NA
1,19200,Text_t,59718,NA,NA
1,19200,Tempo,359999,NA,NA
1,19320,Text_t,60078,NA,NA
1,19440,Note_off_c,2,48,54
1,19440,Note_off_c,2,60,45
1,19440,Note_off_c,3,64,43
1,19440,Note_off_c,3,72,43
1,19440,Note_on_c,2,50,57
1,19440,Note_on_c,2,57,57
1,19440,Note_on_c,3,65,52
1,19440,Note_on_c,3,69,52
1,19440,Text_t,153.846,NA,NA
1,19440,Text_t,60438,NA,NA
1,19440,Tempo,390000,NA,NA
1,19530,Note_off_c,2,50,57
1,19530,Note_off_c,2,57,57
1,19530,Note_off_c,3,65,52
1,19530,Note_off_c,3,69,52
1,19530,Note_on_c,2,50,51
1,19530,Note_on_c,2,57,51
1,19530,Note_on_c,3,65,49
1,19530,Note_on_c,3,69,49
1,19560,Note_off_c,2,50,51
1,19560,Note_off_c,2,57,51
1,19560,Note_off_c,3,65,49
1,19560,Note_off_c,3,69,49
1,19560,Note_on_c,2,50,42
1,19560,Note_on_c,2,57,42
1,19560,Note_on_c,3,65,45
1,19560,Note_on_c,3,69,45
1,19560,Text_t,171.429,NA,NA
1,19560,Text_t,60828,NA,NA
1,19560,Tempo,349999,NA,NA
1,19680,Note_off_c,2,50,42
1,19680,Note_off_c,2,57,42
1,19680,Note_off_c,3,65,45
1,19680,Note_off_c,3,69,45
1,19680,Note_on_c,2,50,49
1,19680,Note_on_c,2,57,49
1,19680,Note_on_c,3,65,44
1,19680,Note_on_c,3,74,44
1,19680,Text_t,176.471,NA,NA
1,19680,Text_t,61178,NA,NA
1,19680,Tempo,339999,NA,NA
1,19800,Note_off_c,2,50,49
1,19800,Note_off_c,2,57,49
1,19800,Note_off_c,3,65,44
1,19800,Note_off_c,3,74,44
1,19800,Note_on_c,2,52,50
1,19800,Note_on_c,2,45,50
1,19800,Note_on_c,3,64,51
1,19800,Note_on_c,3,72,51
1,19800,Text_t,143.198,NA,NA
1,19800,Text_t,61518,NA,NA
1,19800,Tempo,419000,NA,NA
1,19890,Note_off_c,2,52,50
1,19890,Note_off_c,3,64,51
1,19890,Note_off_c,3,72,51
1,19890,Note_on_c,2,56,42
1,19890,Note_on_c,3,62,51
1,19890,Note_on_c,3,70,51
1,19920,Note_off_c,2,56,42
1,19920,Note_off_c,3,62,51
1,19920,Note_off_c,3,70,51
1,19920,Note_on_c,2,57,50
1,19920,Note_on_c,3,60,44
1,19920,Note_on_c,3,69,44
1,19920,Text_t,191.083,NA,NA
1,19920,Text_t,61937,NA,NA
1,19920,Tempo,314000,NA,NA
1,20040,Text_t,147.42,NA,NA
1,20040,Text_t,62251,NA,NA
1,20040,Tempo,407000,NA,NA
1,20160,Note_off_c,2,45,50
1,20160,Note_off_c,2,57,50
1,20160,Note_off_c,3,60,44
1,20160,Note_off_c,3,69,44
1,20160,Note_on_c,2,46,50
1,20160,Note_on_c,2,53,50
1,20160,Note_on_c,3,62,54
1,20160,Note_on_c,3,65,54
1,20160,Text_t,155.039,NA,NA
1,20160,Text_t,62658,NA,NA
1,20160,Tempo,386999,NA,NA
1,20250,Note_off_c,2,46,50
1,20250,Note_off_c,2,53,50
1,20250,Note_off_c,3,62,54
1,20250,Note_off_c,3,65,54
1,20250,Note_on_c,2,46,43
1,20250,Note_on_c,2,53,43
1,20250,Note_on_c,3,62,47
1,20250,Note_on_c,3,65,47
1,20280,Note_off_c,2,46,43
1,20280,Note_off_c,2,53,43
1,20280,Note_off_c,3,62,47
1,20280,Note_off_c,3,65,47
1,20280,Note_on_c,2,46,45
1,20280,Note_on_c,2,53,45
1,20280,Note_on_c,3,62,42
1,20280,Note_on_c,3,65,42
1,20280,Text_t,174.927,NA,NA
1,20280,Text_t,63045,NA,NA
1,20280,Tempo,343000,NA,NA
1,20400,Note_off_c,2,46,45
1,20400,Note_off_c,2,53,45
1,20400,Note_off_c,3,62,42
1,20400,Note_off_c,3,65,42
1,20400,Note_on_c,2,46,43
1,20400,Note_on_c,2,53,43
1,20400,Note_on_c,3,62,42
1,20400,Note_on_c,3,70,42
1,20400,Text_t,176.471,NA,NA
1,20400,Text_t,63388,NA,NA
1,20400,Tempo,339999,NA,NA
1,20520,Note_off_c,2,46,43
1,20520,Note_off_c,2,53,43
1,20520,Note_off_c,3,62,42
1,20520,Note_off_c,3,70,42
1,20520,Note_on_c,2,41,48
1,20520,Note_on_c,2,53,48
1,20520,Note_on_c,3,60,49
1,20520,Note_on_c,3,69,49
1,20520,Text_t,157.895,NA,NA
1,20520,Text_t,63728,NA,NA
1,20520,Tempo,379999,NA,NA
1,20610,Note_off_c,2,41,48
1,20610,Note_off_c,2,53,48
1,20610,Note_off_c,3,60,49
1,20610,Note_off_c,3,69,49
1,20610,Note_on_c,2,41,48
1,20610,Note_on_c,2,53,48
1,20610,Note_on_c,3,58,42
1,20610,Note_on_c,3,67,42
1,20640,Note_off_c,2,41,48
1,20640,Note_off_c,2,53,48
1,20640,Note_off_c,3,58,42
1,20640,Note_off_c,3,67,42
1,20640,Note_on_c,2,41,44
1,20640,Note_on_c,2,53,44
1,20640,Note_on_c,3,57,44
1,20640,Note_on_c,3,65,44
1,20640,Text_t,171.429,NA,NA
1,20640,Text_t,64108,NA,NA
1,20640,Tempo,349999,NA,NA
1,20760,Note_off_c,2,41,44
1,20760,Note_off_c,2,53,44
1,20760,Note_off_c,3,57,44
1,20760,Note_off_c,3,65,44
1,20760,Note_on_c,2,46,41
1,20760,Note_on_c,2,53,41
1,20760,Note_on_c,3,62,49
1,20760,Note_on_c,3,70,49
1,20760,Text_t,162.162,NA,NA
1,20760,Text_t,64458,NA,NA
1,20760,Tempo,370000,NA,NA
1,20880,Note_off_c,2,46,41
1,20880,Note_off_c,2,53,41
1,20880,Note_off_c,3,62,49
1,20880,Note_off_c,3,70,49
1,20880,Note_on_c,2,53,50
1,20880,Note_on_c,2,41,50
1,20880,Note_on_c,3,60,50
1,20880,Note_on_c,3,69,50
1,20880,Text_t,150,NA,NA
1,20880,Text_t,64828,NA,NA
1,20880,Tempo,400000,NA,NA
1,20970,Note_off_c,2,53,50
1,20970,Note_off_c,3,60,50
1,20970,Note_off_c,3,69,50
1,20970,Note_on_c,2,53,41
1,20970,Note_on_c,3,58,49
1,20970,Note_on_c,3,67,49
1,21000,Note_off_c,2,53,41
1,21000,Note_off_c,3,58,49
1,21000,Note_off_c,3,67,49
1,21000,Note_on_c,2,53,42
1,21000,Note_on_c,3,57,50
1,21000,Note_on_c,3,65,50
1,21000,Text_t,146.341,NA,NA
1,21000,Text_t,65228,NA,NA
1,21000,Tempo,410001,NA,NA
1,21120,Note_off_c,2,41,50
1,21120,Note_off_c,2,53,42
1,21120,Note_off_c,3,57,50
1,21120,Note_off_c,3,65,50
1,21120,Note_on_c,2,55,57
1,21120,Note_on_c,2,46,44
1,21120,Note_on_c,3,62,59
1,21120,Note_on_c,3,67,77
1,21120,Text_t,117.647,NA,NA
1,21120,Text_t,65638,NA,NA
1,21120,Tempo,510000,NA,NA
1,21240,Note_off_c,2,55,57
1,21240,Note_off_c,2,46,44
1,21240,Note_off_c,3,62,59
1,21240,Note_off_c,3,67,77
1,21240,Note_on_c,2,48,54
1,21240,Note_on_c,3,55,52
1,21240,Note_on_c,3,62,52
1,21240,Text_t,78.9474,NA,NA
1,21240,Text_t,66148,NA,NA
1,21240,Tempo,760000,NA,NA
1,21300,Note_off_c,3,55,52
1,21300,Note_off_c,3,62,52
1,21300,Note_on_c,3,60,48
1,21300,Note_on_c,3,64,48
1,21360,Note_off_c,2,48,54
1,21360,Note_off_c,3,60,48
1,21360,Note_off_c,3,64,48
1,21360,Note_on_c,2,41,41
1,21360,Note_on_c,2,53,41
1,21360,Note_on_c,3,57,51
1,21360,Note_on_c,3,65,51
1,21360,Text_t,53.0973,NA,NA
1,21360,Text_t,66908,NA,NA
1,21360,Tempo,1130001,NA,NA
1,21480,Text_t,68038,NA,NA
1,21600,Note_off_c,2,41,41
1,21600,Note_off_c,2,53,41
1,21600,Note_off_c,3,57,51
1,21600,Note_off_c,3,65,51
1,21600,Text_t,!!!ENC: Craig Stuart Sapp,NA,NA
1,21600,Text_t,!!!END: 2005/03/04/,NA,NA
1,21719,Note_on_c,0,0,0
1,21720,End_track,NA,NA,NA
0,0,End_of_file,NA,NA,NA
